<svg width="249" height="229" viewBox="0 0 249 229" fill="none" xmlns="http://www.w3.org/2000/svg">
<path d="M171.822 86.4756C172.493 84.6455 173.702 83.0612 175.29 81.9314C176.878 80.8016 178.771 80.1792 180.72 80.1462H241.545C242.596 80.1069 243.643 80.2987 244.612 80.7082C245.581 81.1176 246.448 81.7346 247.152 82.5158C247.856 83.2969 248.381 84.2231 248.688 85.2289C248.995 86.2348 249.078 87.2959 248.931 88.3372L233.217 220.177C232.884 222.421 231.763 224.474 230.055 225.967C228.347 227.461 226.163 228.299 223.894 228.33H30.8953C29.8478 228.37 28.8043 228.18 27.8382 227.773C26.8721 227.366 26.007 226.752 25.3036 225.975C24.6003 225.198 24.0758 224.276 23.7672 223.274C23.4585 222.272 23.3732 221.215 23.5172 220.177L36.6928 109.408C37.0263 107.163 38.1473 105.111 39.8554 103.617C41.5635 102.123 43.7472 101.286 46.016 101.254H151.041C155.592 101.177 160.013 99.7236 163.722 97.0857C167.431 94.4478 170.255 90.749 171.822 86.4756Z" fill="#E55812"/>
<path d="M26.9883 222.259H228.657L240.146 86.5668H38.4846L26.9883 222.259Z" fill="#F0F0F0"/>
<path d="M26.9883 222.259H228.657L236.969 86.5668H38.4846L26.9883 222.259Z" fill="#E0E0E0"/>
<path d="M26.9883 222.258H228.657L235.587 82.2582H33.9256L26.9883 222.258Z" fill="#F0F0F0"/>
<path d="M26.9883 222.258H228.657L231.4 82.2582H33.9256L26.9883 222.258Z" fill="#E0E0E0"/>
<path d="M26.9883 222.258H228.657L229.857 78.459H28.1964L26.9883 222.258Z" fill="#F0F0F0"/>
<path d="M26.9885 222.259H228.657L224.516 81.1795H24.1543L26.9885 222.259Z" fill="#E0E0E0"/>
<path d="M26.9858 222.258H228.654L222.667 82.2582H21.0059L26.9858 222.258Z" fill="#F0F0F0"/>
<path d="M26.9893 222.258H228.658L219.122 84.3706H17.4609L26.9893 222.258Z" fill="#E0E0E0"/>
<path d="M26.9895 222.259H228.658L217.602 85.5485H15.9414L26.9895 222.259Z" fill="#F0F0F0"/>
<path d="M127.978 95.0389C127.989 94.1573 128.178 93.287 128.532 92.4797C128.887 91.6725 129.4 90.9449 130.042 90.3401C130.684 89.7354 131.44 89.2659 132.267 88.9597C133.094 88.6534 133.974 88.5166 134.855 88.5575H195.68C198.035 88.6479 200.293 89.5177 202.1 91.0305C203.907 92.5433 205.161 94.6133 205.664 96.9157L229.698 220.009C230.594 224.622 227.585 228.368 222.973 228.368H29.9741C25.3543 228.368 20.856 224.622 19.9822 220.009L0.158049 118.533C-0.73856 113.921 2.2704 110.175 6.88261 110.175H111.915C121.033 110.175 127.666 103.899 127.978 95.0389Z" fill="#E55812"/>
<path opacity="0.2" d="M126.265 139.366C113.391 144.367 99.3242 145.439 85.8419 142.445C72.3596 139.452 60.0677 132.527 50.5206 122.548C40.9735 112.569 34.5999 99.9827 32.2057 86.3812C29.8116 72.7797 31.5045 58.7737 37.0703 46.1342C42.6361 33.4948 51.8249 22.7896 63.4747 15.3724C75.1245 7.95518 88.7121 4.159 102.519 4.46393C116.327 4.76885 129.733 9.16117 141.044 17.0855C152.355 25.0098 161.063 36.1102 166.065 48.983C169.388 57.5308 170.994 66.6494 170.792 75.8181C170.59 84.9868 168.584 94.0259 164.888 102.419C161.192 110.812 155.879 118.395 149.252 124.734C142.624 131.074 134.813 136.046 126.265 139.366Z" fill="#184680"/>
<path opacity="0.1" d="M113.628 5.6039L58.8586 129.989C58.0152 129.351 57.1793 128.69 56.3587 128.021C51.0652 123.642 46.4553 118.497 42.6816 112.756L89.9891 5.31517C97.8267 4.05282 105.823 4.1505 113.628 5.6039Z" fill="white"/>
<path opacity="0.1" d="M152.562 27.1831L101.068 144.13C90.3722 144.141 79.8169 141.692 70.2188 136.972L126.447 9.26611C136.408 13.1619 145.343 19.2915 152.562 27.1831Z" fill="white"/>
<path d="M43.4894 27.2363C52.7941 15.8669 65.2612 7.51201 79.3142 3.22808C93.3673 -1.05585 108.375 -1.07637 122.44 3.16911C136.505 7.41459 148.994 15.7354 158.33 27.0793C167.666 38.4232 173.428 52.2807 174.888 66.8995C176.348 81.5183 173.441 96.2417 166.533 109.208C159.625 122.174 149.028 132.801 136.08 139.744C123.133 146.688 108.418 149.636 93.7951 148.216C79.1724 146.796 65.2991 141.072 53.9295 131.767C38.6851 119.289 29.0212 101.266 27.0633 81.6637C25.1055 62.0609 31.014 42.4832 43.4894 27.2363ZM153.757 117.475C162.298 107.034 167.551 94.2959 168.853 80.87C170.154 67.4441 167.446 53.9337 161.069 42.0473C154.692 30.1609 144.934 20.4322 133.029 14.0914C121.123 7.75068 107.605 5.0826 94.1827 6.42458C80.7608 7.76656 68.0382 13.0583 57.6237 21.6307C47.2091 30.2032 39.5704 41.6713 35.6734 54.5849C31.7764 67.4985 31.7961 81.2777 35.73 94.1802C39.6639 107.083 47.3353 118.529 57.7743 127.071C64.7065 132.744 72.6882 136.996 81.2637 139.584C89.8392 142.172 98.8405 143.045 107.753 142.154C116.666 141.263 125.317 138.625 133.21 134.39C141.103 130.156 148.085 124.408 153.757 117.475Z" fill="#184680"/>
<path d="M160.314 117.216C167.631 121.585 174.591 126.388 181.43 131.342C188.268 136.296 194.932 141.455 201.489 146.751C208.047 152.047 214.483 157.495 220.69 163.217C223.801 166.074 226.84 169.007 229.809 172.016C232.787 175.055 235.712 178.094 238.471 181.392C239.108 182.156 239.459 183.117 239.464 184.112C239.469 185.106 239.128 186.072 238.498 186.841C237.868 187.611 236.99 188.138 236.015 188.33C235.039 188.523 234.027 188.369 233.152 187.896C229.353 185.845 225.797 183.581 222.248 181.263C218.7 178.946 215.235 176.529 211.816 174.045C204.977 169.09 198.359 163.87 191.877 158.483C185.396 153.096 179.013 147.587 172.805 141.858C166.598 136.129 160.511 130.263 154.782 123.956C154.067 123.176 153.657 122.164 153.627 121.106C153.597 120.048 153.95 119.015 154.62 118.196C155.29 117.377 156.234 116.827 157.277 116.647C158.32 116.467 159.392 116.669 160.299 117.216H160.314Z" fill="#184680"/>
</svg>
